<svg xmlns="http://www.w3.org/2000/svg" width="1024" height="1024" viewBox="0 0 1024 1024">
<g>
<path d="M 0.00 0.00 L 1024.00 0.00 L 1024.00 1024.00 L 0.00 1024.00 ZM 582.50 799.00 C596.79,813.30 608.85,825.00 609.29,825.00 C610.01,825.00 621.03,819.39 625.00,817.00 C631.31,813.21 645.91,805.00 646.34,805.00 C646.64,805.00 651.75,802.18 657.69,798.73 C663.64,795.28 669.62,791.90 671.00,791.22 C672.38,790.53 675.30,788.93 677.50,787.66 C679.70,786.38 684.42,783.73 688.00,781.76 C691.58,779.80 697.17,776.57 700.44,774.60 C703.71,772.62 706.93,771.00 707.61,771.00 C708.28,771.00 708.98,770.64 709.17,770.21 C709.35,769.78 711.75,768.26 714.50,766.83 L 719.50 764.25 L 720.17 756.37 C720.53,752.04 720.86,655.35 720.88,541.50 C720.92,380.75 720.66,333.97 719.72,332.12 C719.01,330.75 715.12,327.97 710.50,325.55 C706.10,323.24 698.90,319.39 694.50,316.99 C690.10,314.59 683.80,311.22 680.50,309.50 C674.68,306.48 664.96,301.35 646.61,291.60 C641.72,289.01 633.85,284.83 629.11,282.32 C618.08,276.47 606.37,270.23 597.50,265.48 C593.65,263.41 586.25,259.49 581.06,256.77 C575.86,254.04 565.74,248.63 558.56,244.75 C551.38,240.86 540.33,234.98 534.00,231.68 C527.67,228.37 519.96,224.34 516.85,222.72 L 511.20 219.77 L 502.85 224.27 C494.26,228.91 484.92,233.85 465.15,244.22 C458.91,247.50 451.71,251.41 449.15,252.91 L 444.50 255.64 L 444.24 345.96 C444.06,411.86 444.29,436.65 445.12,437.64 C446.68,439.52 578.92,439.68 580.80,437.80 C581.70,436.90 582.00,425.77 582.00,393.88 C582.00,370.39 582.27,350.45 582.61,349.58 C582.94,348.71 584.12,348.00 585.23,348.00 C586.34,348.00 595.52,353.06 605.63,359.25 C615.74,365.44 624.91,370.99 626.00,371.59 C627.09,372.19 628.78,373.33 629.74,374.14 C630.71,374.94 633.21,376.48 635.29,377.55 C637.38,378.62 639.30,380.40 639.57,381.50 C639.83,382.60 639.92,460.83 639.77,555.35 L 639.50 727.20 L 635.50 729.52 C631.04,732.11 628.74,733.33 608.00,744.16 C600.03,748.33 589.45,753.88 584.50,756.51 C579.55,759.13 571.67,763.26 567.00,765.67 C562.33,768.09 558.05,770.72 557.51,771.53 C556.72,772.68 562.05,778.54 582.50,799.00 ZM 479.50 709.40 C496.00,718.97 510.13,726.84 510.90,726.90 C512.38,727.01 522.16,721.88 543.15,709.98 C547.02,707.79 550.37,706.00 550.61,706.00 C550.85,706.00 552.94,704.79 555.27,703.31 C557.60,701.83 561.48,699.55 563.90,698.26 C571.24,694.32 576.93,691.09 579.54,689.38 L 582.01 687.76 L 581.76 594.13 L 581.50 500.50 L 444.50 500.50 L 444.24 552.75 C444.04,594.27 444.18,604.14 441.83,604.77 C441.11,604.97 440.15,604.30 438.88,603.41 C438.57,603.19 438.24,602.96 437.89,602.72 C436.03,601.47 428.42,596.68 421.00,592.09 C413.58,587.50 404.35,581.67 400.50,579.15 C396.65,576.63 392.00,573.74 390.16,572.73 C388.32,571.72 383.93,569.01 380.41,566.71 L 374.00 562.53 L 373.98 392.02 C373.98,298.23 373.64,221.01 373.23,220.41 C372.83,219.81 368.00,216.74 362.50,213.60 C357.00,210.45 351.83,207.47 351.00,206.97 C348.72,205.60 338.34,199.79 330.50,195.51 C326.65,193.41 322.38,190.95 321.00,190.05 C315.54,186.48 307.03,182.86 304.83,183.17 L 302.50 183.50 L 302.00 606.09 L 304.43 608.35 C305.77,609.59 311.51,613.19 317.19,616.35 C322.86,619.50 328.17,622.49 329.00,622.99 C329.83,623.49 339.27,628.93 350.00,635.08 C360.73,641.22 373.22,648.45 377.76,651.13 C382.31,653.81 386.20,656.00 386.40,656.00 C386.61,656.00 392.84,659.55 400.25,663.89 C407.66,668.23 415.70,672.89 418.11,674.24 C420.52,675.60 427.14,679.36 432.81,682.60 C438.48,685.85 444.56,689.29 446.31,690.25 C448.06,691.22 463.00,699.84 479.50,709.40 Z" fill="rgb(0,0,0)"/>
<path d="M 582.50 799.00 C562.05,778.54 556.72,772.68 557.51,771.53 C558.05,770.72 562.33,768.09 567.00,765.67 C571.67,763.26 579.55,759.13 584.50,756.51 C589.45,753.88 600.03,748.33 608.00,744.16 C628.74,733.33 631.04,732.11 635.50,729.52 L 639.50 727.20 L 639.77 555.35 C639.92,460.83 639.83,382.60 639.57,381.50 C639.30,380.40 637.38,378.62 635.29,377.55 C633.21,376.48 630.71,374.94 629.74,374.14 C628.78,373.33 627.09,372.19 626.00,371.59 C624.91,370.99 615.74,365.44 605.63,359.25 C595.52,353.06 586.34,348.00 585.23,348.00 C584.12,348.00 582.94,348.71 582.61,349.58 C582.27,350.45 582.00,370.39 582.00,393.88 C582.00,425.77 581.70,436.90 580.80,437.80 C578.92,439.68 446.68,439.52 445.12,437.64 C444.29,436.65 444.06,411.86 444.24,345.96 L 444.50 255.64 L 449.15 252.91 C451.71,251.41 458.91,247.50 465.15,244.22 C484.92,233.85 494.26,228.91 502.85,224.27 L 511.20 219.77 L 516.85 222.72 C519.96,224.34 527.67,228.37 534.00,231.68 C540.33,234.98 551.38,240.86 558.56,244.75 C565.74,248.63 575.86,254.04 581.06,256.77 C586.25,259.49 593.65,263.41 597.50,265.48 C606.37,270.23 618.08,276.47 629.11,282.32 C633.85,284.83 641.72,289.01 646.61,291.60 C664.96,301.35 674.68,306.48 680.50,309.50 C683.80,311.22 690.10,314.59 694.50,316.99 C698.90,319.39 706.10,323.24 710.50,325.55 C715.12,327.97 719.01,330.75 719.72,332.12 C720.66,333.97 720.92,380.75 720.88,541.50 C720.86,655.35 720.53,752.04 720.17,756.37 L 719.50 764.25 L 714.50 766.83 C711.75,768.26 709.35,769.78 709.17,770.21 C708.98,770.64 708.28,771.00 707.61,771.00 C706.93,771.00 703.71,772.62 700.44,774.60 C697.17,776.57 691.58,779.80 688.00,781.76 C684.42,783.73 679.70,786.38 677.50,787.66 C675.30,788.93 672.38,790.53 671.00,791.22 C669.62,791.90 663.64,795.28 657.69,798.73 C651.75,802.18 646.64,805.00 646.34,805.00 C645.91,805.00 631.31,813.21 625.00,817.00 C621.03,819.39 610.01,825.00 609.29,825.00 C608.85,825.00 596.79,813.30 582.50,799.00 ZM 479.50 709.40 C463.00,699.84 448.06,691.22 446.31,690.25 C444.56,689.29 438.48,685.85 432.81,682.60 C427.14,679.36 420.52,675.60 418.11,674.24 C415.70,672.89 407.66,668.23 400.25,663.89 C392.84,659.55 386.61,656.00 386.40,656.00 C386.20,656.00 382.31,653.81 377.76,651.13 C373.22,648.45 360.73,641.22 350.00,635.08 C339.27,628.93 329.83,623.49 329.00,622.99 C328.17,622.49 322.86,619.50 317.19,616.35 C311.51,613.19 305.77,609.59 304.43,608.35 L 302.00 606.09 L 302.25 394.80 L 302.50 183.50 L 304.83 183.17 C307.03,182.86 315.54,186.48 321.00,190.05 C322.38,190.95 326.65,193.41 330.50,195.51 C338.34,199.79 348.72,205.60 351.00,206.97 C351.83,207.47 357.00,210.45 362.50,213.60 C368.00,216.74 372.83,219.81 373.23,220.41 C373.64,221.01 373.98,298.23 373.98,392.02 L 374.00 562.53 L 380.41 566.71 C383.93,569.01 388.32,571.72 390.16,572.73 C392.00,573.74 396.65,576.63 400.50,579.15 C404.35,581.67 413.58,587.50 421.00,592.09 C428.42,596.68 436.03,601.47 437.89,602.72 C444.34,607.06 443.96,610.09 444.24,552.75 L 444.50 500.50 L 513.00 500.50 L 581.50 500.50 L 581.76 594.13 L 582.01 687.76 L 579.54 689.38 C576.93,691.09 571.24,694.32 563.90,698.26 C561.48,699.55 557.60,701.83 555.27,703.31 C552.94,704.79 550.85,706.00 550.61,706.00 C550.37,706.00 547.02,707.79 543.15,709.98 C522.16,721.88 512.38,727.01 510.90,726.90 C510.13,726.84 496.00,718.97 479.50,709.40 Z" fill="rgb(254,254,254)"/>
</g>
</svg>